<svg aria-hidden="true" xmlns="http://www.w3.org/2000/svg" xmlns:xlink="http://www.w3.org/1999/xlink"><symbol viewBox="0 0 20 21" fill="none" id="checkmark" xmlns="http://www.w3.org/2000/svg">
<path d="M10 0.829102C8.07164 0.829102 6.18657 1.40093 4.58319 2.47227C2.97982 3.54362 1.73013 5.06636 0.992179 6.84794C0.254225 8.62952 0.061142 10.5899 0.437348 12.4812C0.813554 14.3725 1.74215 16.1098 3.10571 17.4734C4.46928 18.837 6.20656 19.7656 8.09787 20.1418C9.98919 20.518 11.9496 20.3249 13.7312 19.5869C15.5127 18.849 17.0355 17.5993 18.1068 15.9959C19.1782 14.3925 19.75 12.5075 19.75 10.5791C19.7473 7.99408 18.7192 5.51571 16.8913 3.68783C15.0634 1.85994 12.585 0.831831 10 0.829102ZM14.2806 8.85973L9.03063 14.1097C8.96097 14.1795 8.87826 14.2348 8.78721 14.2725C8.69616 14.3103 8.59857 14.3297 8.5 14.3297C8.40144 14.3297 8.30385 14.3103 8.2128 14.2725C8.12175 14.2348 8.03903 14.1795 7.96938 14.1097L5.71938 11.8597C5.57865 11.719 5.49959 11.5281 5.49959 11.3291C5.49959 11.1301 5.57865 10.9392 5.71938 10.7985C5.86011 10.6577 6.05098 10.5787 6.25 10.5787C6.44903 10.5787 6.6399 10.6577 6.78063 10.7985L8.5 12.5188L13.2194 7.79848C13.2891 7.72879 13.3718 7.67352 13.4628 7.63581C13.5539 7.59809 13.6515 7.57868 13.75 7.57868C13.8486 7.57868 13.9461 7.59809 14.0372 7.63581C14.1282 7.67352 14.2109 7.72879 14.2806 7.79848C14.3503 7.86816 14.4056 7.95088 14.4433 8.04193C14.481 8.13297 14.5004 8.23056 14.5004 8.3291C14.5004 8.42765 14.481 8.52523 14.4433 8.61627C14.4056 8.70732 14.3503 8.79004 14.2806 8.85973Z" fill="currentColor"/>
</symbol><symbol viewBox="0 0 22 6" id="dots" xmlns="http://www.w3.org/2000/svg">
<path d="M13.625 3C13.625 3.51918 13.471 4.02669 13.1826 4.45837C12.8942 4.89005 12.4842 5.2265 12.0045 5.42518C11.5249 5.62386 10.9971 5.67585 10.4879 5.57456C9.97869 5.47328 9.51096 5.22327 9.14385 4.85616C8.77673 4.48904 8.52673 4.02131 8.42544 3.51211C8.32415 3.00291 8.37614 2.47511 8.57482 1.99546C8.7735 1.5158 9.10995 1.10583 9.54163 0.817392C9.97331 0.528953 10.4808 0.375 11 0.375C11.6962 0.375 12.3639 0.651562 12.8562 1.14384C13.3484 1.63613 13.625 2.30381 13.625 3ZM3.5 0.375C2.98083 0.375 2.47331 0.528953 2.04163 0.817392C1.60995 1.10583 1.2735 1.5158 1.07482 1.99546C0.876137 2.47511 0.824154 3.00291 0.92544 3.51211C1.02673 4.02131 1.27673 4.48904 1.64385 4.85616C2.01096 5.22327 2.47869 5.47328 2.98789 5.57456C3.49709 5.67585 4.02489 5.62386 4.50455 5.42518C4.9842 5.2265 5.39417 4.89005 5.68261 4.45837C5.97105 4.02669 6.125 3.51918 6.125 3C6.125 2.30381 5.84844 1.63613 5.35616 1.14384C4.86387 0.651562 4.19619 0.375 3.5 0.375ZM18.5 0.375C17.9808 0.375 17.4733 0.528953 17.0416 0.817392C16.61 1.10583 16.2735 1.5158 16.0748 1.99546C15.8761 2.47511 15.8242 3.00291 15.9254 3.51211C16.0267 4.02131 16.2767 4.48904 16.6438 4.85616C17.011 5.22327 17.4787 5.47328 17.9879 5.57456C18.4971 5.67585 19.0249 5.62386 19.5045 5.42518C19.9842 5.2265 20.3942 4.89005 20.6826 4.45837C20.971 4.02669 21.125 3.51918 21.125 3C21.125 2.65528 21.0571 2.31394 20.9252 1.99546C20.7933 1.67698 20.5999 1.3876 20.3562 1.14384C20.1124 0.900091 19.823 0.706735 19.5045 0.574816C19.1861 0.442897 18.8447 0.375 18.5 0.375Z" fill="currentColor" fill-opacity="0.4"/>
</symbol><symbol viewBox="0 0 24 24" fill="none" id="parameters" xmlns="http://www.w3.org/2000/svg">
<path d="M13.125 11.625V20.25C13.125 20.5484 13.0065 20.8345 12.7955 21.0455C12.5845 21.2565 12.2984 21.375 12 21.375C11.7016 21.375 11.4155 21.2565 11.2045 21.0455C10.9935 20.8345 10.875 20.5484 10.875 20.25V11.625C10.875 11.3266 10.9935 11.0405 11.2045 10.8295C11.4155 10.6185 11.7016 10.5 12 10.5C12.2984 10.5 12.5845 10.6185 12.7955 10.8295C13.0065 11.0405 13.125 11.3266 13.125 11.625ZM18.75 18C18.4516 18 18.1655 18.1185 17.9545 18.3295C17.7435 18.5405 17.625 18.8266 17.625 19.125V20.25C17.625 20.5484 17.7435 20.8345 17.9545 21.0455C18.1655 21.2565 18.4516 21.375 18.75 21.375C19.0484 21.375 19.3345 21.2565 19.5455 21.0455C19.7565 20.8345 19.875 20.5484 19.875 20.25V19.125C19.875 18.8266 19.7565 18.5405 19.5455 18.3295C19.3345 18.1185 19.0484 18 18.75 18ZM21 14.25H19.875V3.75C19.875 3.45163 19.7565 3.16548 19.5455 2.9545C19.3345 2.74353 19.0484 2.625 18.75 2.625C18.4516 2.625 18.1655 2.74353 17.9545 2.9545C17.7435 3.16548 17.625 3.45163 17.625 3.75V14.25H16.5C16.2016 14.25 15.9155 14.3685 15.7045 14.5795C15.4935 14.7905 15.375 15.0766 15.375 15.375C15.375 15.6734 15.4935 15.9595 15.7045 16.1705C15.9155 16.3815 16.2016 16.5 16.5 16.5H21C21.2984 16.5 21.5845 16.3815 21.7955 16.1705C22.0065 15.9595 22.125 15.6734 22.125 15.375C22.125 15.0766 22.0065 14.7905 21.7955 14.5795C21.5845 14.3685 21.2984 14.25 21 14.25ZM5.25 15C4.95163 15 4.66548 15.1185 4.4545 15.3295C4.24353 15.5405 4.125 15.8266 4.125 16.125V20.25C4.125 20.5484 4.24353 20.8345 4.4545 21.0455C4.66548 21.2565 4.95163 21.375 5.25 21.375C5.54837 21.375 5.83452 21.2565 6.0455 21.0455C6.25647 20.8345 6.375 20.5484 6.375 20.25V16.125C6.375 15.8266 6.25647 15.5405 6.0455 15.3295C5.83452 15.1185 5.54837 15 5.25 15ZM7.5 11.25H6.375V3.75C6.375 3.45163 6.25647 3.16548 6.0455 2.9545C5.83452 2.74353 5.54837 2.625 5.25 2.625C4.95163 2.625 4.66548 2.74353 4.4545 2.9545C4.24353 3.16548 4.125 3.45163 4.125 3.75V11.25H3C2.70163 11.25 2.41548 11.3685 2.2045 11.5795C1.99353 11.7905 1.875 12.0766 1.875 12.375C1.875 12.6734 1.99353 12.9595 2.2045 13.1705C2.41548 13.3815 2.70163 13.5 3 13.5H7.5C7.79837 13.5 8.08452 13.3815 8.2955 13.1705C8.50647 12.9595 8.625 12.6734 8.625 12.375C8.625 12.0766 8.50647 11.7905 8.2955 11.5795C8.08452 11.3685 7.79837 11.25 7.5 11.25ZM14.25 6.75H13.125V3.75C13.125 3.45163 13.0065 3.16548 12.7955 2.9545C12.5845 2.74353 12.2984 2.625 12 2.625C11.7016 2.625 11.4155 2.74353 11.2045 2.9545C10.9935 3.16548 10.875 3.45163 10.875 3.75V6.75H9.75C9.45163 6.75 9.16548 6.86853 8.9545 7.0795C8.74353 7.29048 8.625 7.57663 8.625 7.875C8.625 8.17337 8.74353 8.45952 8.9545 8.6705C9.16548 8.88147 9.45163 9 9.75 9H14.25C14.5484 9 14.8345 8.88147 15.0455 8.6705C15.2565 8.45952 15.375 8.17337 15.375 7.875C15.375 7.57663 15.2565 7.29048 15.0455 7.0795C14.8345 6.86853 14.5484 6.75 14.25 6.75Z" fill="currentColor"/>
</symbol></svg>